<svg width="286.2" height="85" viewBox="0 0 286.2 85" xmlns="http://www.w3.org/2000/svg">
    <g id="svgGroup" stroke-linecap="round" fill-rule="evenodd" font-size="9pt" stroke="#000" stroke-width="0.25mm"
       fill="#000" style="stroke:#000;stroke-width:0.25mm;fill:#000">
        <path d="M 259.4 3.4 L 263.4 3.4 L 263.4 14 L 263.6 24.4 L 270 22 Q 276.6 19.8 277.6 19.8 Q 278.295 19.626 279.141 20.056 A 4.228 4.228 0 0 1 279.4 20.2 A 4.494 4.494 0 0 1 280.298 20.899 A 3.708 3.708 0 0 1 280.9 21.7 Q 281.4 22.6 281.5 35 A 458.021 458.021 0 0 1 281.51 36.663 Q 281.557 47.251 281.025 48.736 A 1.137 1.137 0 0 1 281 48.8 A 15.446 15.446 0 0 1 280.253 50.865 A 13.723 13.723 0 0 1 280 51.4 A 14.146 14.146 0 0 1 279 53.303 A 17.059 17.059 0 0 1 278.4 54.2 Q 277.2 55.6 275.8 57.2 Q 274.4 58.4 272.2 59.8 A 26.559 26.559 0 0 1 271.124 60.597 Q 269.998 61.384 269.107 61.797 A 8.106 8.106 0 0 1 269.1 61.8 A 126.96 126.96 0 0 0 268.481 62.088 Q 267.724 62.442 267.174 62.713 A 39.272 39.272 0 0 0 267 62.8 L 266.2 63.2 L 266.2 61.6 L 266.2 60 L 267 59.6 Q 267.607 59.296 268.56 58.359 A 21.609 21.609 0 0 0 269.2 57.7 A 19.448 19.448 0 0 0 270.31 56.407 Q 270.95 55.588 271.4 54.8 A 43.829 43.829 0 0 0 272.012 53.063 A 34.449 34.449 0 0 0 272.4 51.8 Q 273 50.4 273.4 48.4 A 20.547 20.547 0 0 0 273.468 47.362 Q 273.577 44.998 273.596 38.973 A 868.803 868.803 0 0 0 273.6 36.2 Q 273.6 27.464 273.453 26.21 A 0.341 0.341 0 0 0 273.4 26 A 0.531 0.531 0 0 1 273.278 26.072 Q 272.699 26.352 269.55 27.415 A 335.207 335.207 0 0 1 268.4 27.8 L 263.6 29.6 L 263.4 45.4 L 263.2 61.4 L 262.6 62.6 A 5.448 5.448 0 0 1 262.023 63.823 A 4.62 4.62 0 0 1 261.4 64.6 Q 260.6 65.6 259.6 66.2 A 15.956 15.956 0 0 1 258.648 66.725 Q 257.988 67.063 257.2 67.4 A 138.471 138.471 0 0 1 256.823 67.541 Q 255.7 67.958 255.526 67.996 A 0.136 0.136 0 0 1 255.5 68 A 1.171 1.171 0 0 1 255.477 67.723 Q 255.404 65.896 255.4 51.999 A 5816.692 5816.692 0 0 1 255.4 50.3 Q 255.4 32.6 255.2 32.6 Q 255 32.6 251 34 Q 246.6 35.6 246.4 35.8 L 245.6 36 L 245.6 55.4 L 245.6 74.6 L 262.6 74.6 L 279.8 74.6 L 279.8 73.6 A 5.503 5.503 0 0 1 280.262 72.226 A 4.981 4.981 0 0 1 280.5 71.8 A 3.801 3.801 0 0 1 281.22 70.964 A 5.314 5.314 0 0 1 282 70.4 Q 283.107 69.662 283.874 69.434 A 3.021 3.021 0 0 1 284 69.4 A 8.027 8.027 0 0 1 285.25 68.897 A 7.153 7.153 0 0 1 285.6 68.8 L 286.2 68.8 L 286.2 75 L 286.2 81.4 L 264.4 81.4 Q 243.573 81.4 241.712 80.842 A 0.716 0.716 0 0 1 241.6 80.8 A 7.433 7.433 0 0 1 240.972 80.444 Q 240.425 80.1 239.8 79.6 Q 238.939 78.739 238.523 77.878 A 4.356 4.356 0 0 1 238.4 77.6 L 237.8 76.6 L 237.6 57.8 A 1939.315 1939.315 0 0 0 237.595 53.394 Q 237.564 39.556 237.32 39.022 A 0.029 0.029 0 0 0 237.3 39 A 1.01 1.01 0 0 0 237.099 39.038 Q 236.427 39.212 233.774 40.165 A 266.893 266.893 0 0 0 233.4 40.3 A 191.671 191.671 0 0 1 232.611 40.583 Q 229.867 41.56 229.707 41.504 A 0.018 0.018 0 0 1 229.7 41.5 Q 229.613 41.413 228.991 39.722 A 152.216 152.216 0 0 1 228.8 39.2 L 228 37 L 229 36.6 L 233.8 35 L 237.6 33.6 L 237.6 24 L 237.6 14.4 L 241.6 14.4 L 245.6 14.4 L 245.6 22.6 L 245.6 26.5 L 245.6 28.9 A 13.041 13.041 0 0 0 245.606 29.319 Q 245.619 29.721 245.659 29.989 A 2.245 2.245 0 0 0 245.7 30.2 L 245.8 30.6 Q 246.179 30.6 250.322 29.166 A 335.033 335.033 0 0 0 250.8 29 L 255.2 27.2 L 255.4 15.4 L 255.4 3.4 L 259.4 3.4 Z M 56.8 0.2 L 61 0.2 L 61 5.4 L 61 10.6 L 70.6 10.6 L 80 10.6 L 80 12.4 L 80 14.2 L 70.6 14.2 L 61 14.2 L 61 17.4 L 61 20.6 L 69 20.6 L 76.8 20.6 L 76.8 22.4 L 76.8 24.4 L 69 24.4 L 61.2 24.4 L 61 26 Q 60.8 27.6 60.4 28.6 Q 60.016 29.945 59.816 30.182 A 0.277 0.277 0 0 1 59.8 30.2 L 61.6 30.6 L 69.8 30.6 L 80 30.8 L 80 32.6 L 80 34.6 L 56.8 34.6 L 33.6 34.6 L 33.6 32.6 L 33.6 30.6 L 43 30.6 L 52.4 30.6 L 52.4 27.6 L 52.4 24.4 L 44.6 24.4 L 36.6 24.4 L 36.6 22.6 L 36.6 20.6 L 44.6 20.6 L 52.4 20.6 L 52.4 17.4 L 52.4 14.2 L 43 14.2 L 33.6 14.2 L 33.6 12.4 L 33.6 10.6 L 43 10.6 L 52.4 10.4 L 52.4 5.2 L 52.4 0 L 56.8 0.2 Z M 162.2 2.6 L 162.2 4.6 L 161.4 4.8 Q 161.051 4.8 155.51 5.563 A 1595.121 1595.121 0 0 0 153.8 5.8 Q 147.885 6.496 147.04 6.586 A 3.258 3.258 0 0 1 146.9 6.6 A 0.203 0.203 0 0 0 146.877 6.709 Q 146.8 7.475 146.8 13.6 L 146.8 20.6 L 151.6 20.6 L 156.4 20.6 L 156.4 22.4 L 156.4 24.4 L 151.6 24.4 L 146.8 24.4 L 146.8 30.8 L 147 37.2 L 152 37.2 L 157.2 37.2 L 157.2 39 L 157.2 40.8 L 152 41 L 147 41 L 146.8 48.8 A 250.372 250.372 0 0 0 146.806 50.628 Q 146.85 56.6 147.2 56.6 L 153.4 56.6 L 159.6 56.8 L 159.6 58.6 L 159.6 60.6 L 153.2 60.6 L 146.8 60.6 L 146.8 68.6 Q 146.8 75.725 146.641 77.615 A 6.874 6.874 0 0 1 146.6 78 A 16.041 16.041 0 0 1 146.158 79.478 A 11.75 11.75 0 0 1 145.6 80.8 A 17.04 17.04 0 0 1 145.112 81.709 Q 144.856 82.152 144.6 82.522 A 9.024 9.024 0 0 1 144.4 82.8 A 13.078 13.078 0 0 1 143.841 83.195 Q 143.163 83.65 142.2 84.2 A 7.178 7.178 0 0 1 141.183 84.686 Q 140.352 85 139.6 85 L 138.2 85 L 138.2 72.8 L 138 60.6 L 136 60.6 L 134 60.4 L 134 58.6 L 134 56.6 L 135.6 56.6 L 137.6 56.6 L 138.2 56.6 L 138.2 30.6 A 11317.803 11317.803 0 0 1 138.202 24.456 Q 138.211 6.616 138.281 4.487 A 1.989 1.989 0 0 1 138.3 4.2 A 0.522 0.522 0 0 1 138.508 4.128 Q 139.875 3.8 150.2 2.4 Q 152.8 2 155.8 1.6 Q 158.097 1.294 159.573 1.105 A 280.491 280.491 0 0 1 160.4 1 L 162 0.8 A 0.097 0.097 0 0 1 162.073 0.874 Q 162.175 1.109 162.195 2.086 A 25.406 25.406 0 0 1 162.2 2.6 Z M 217.8 5.4 L 222.2 5.4 L 222.2 18.2 L 222.4 30.8 L 226.6 30.8 L 230.8 30.8 L 230.8 32.8 L 230.6 34.6 L 226.6 34.6 L 222.4 34.8 L 222.4 48.8 A 1014.376 1014.376 0 0 1 222.389 53.628 Q 222.35 61.864 222.163 64.204 A 9.074 9.074 0 0 1 222.1 64.8 Q 221.87 66.331 221.699 67.276 A 29.326 29.326 0 0 1 221.6 67.8 Q 221.2 68.8 220.6 70.2 A 31.672 31.672 0 0 1 220.389 70.547 Q 220.073 71.059 219.902 71.281 A 1.282 1.282 0 0 1 219.8 71.4 A 0.124 0.124 0 0 0 219.868 71.505 Q 219.983 71.577 220.289 71.595 A 3.788 3.788 0 0 0 220.5 71.6 A 13.274 13.274 0 0 1 220.888 71.606 Q 221.525 71.625 222.5 71.7 A 34.726 34.726 0 0 0 224.83 71.798 A 38.644 38.644 0 0 0 225.2 71.8 L 230.6 71.8 L 230.8 73.6 L 230.8 75.6 L 217 75.6 L 203.2 75.6 L 203.2 73.6 L 203.2 71.8 L 208.2 71.8 L 213.2 71.6 L 213.2 53.2 L 213.2 34.8 L 208.2 34.6 L 203.2 34.6 L 203.2 32.8 L 203.2 30.8 L 208.2 30.8 L 213.2 30.8 L 213.2 18 L 213.2 5.4 L 217.8 5.4 Z M 17 0.8 L 21.2 0.8 L 21.2 15.2 L 21.2 29.4 L 26.8 29.6 L 32.4 29.6 L 32.4 31.4 L 32.4 33.2 L 26.8 33.4 L 21.2 33.4 L 21.2 55.6 A 3445.995 3445.995 0 0 1 21.196 60.702 Q 21.182 70.567 21.106 73.947 A 98.635 98.635 0 0 1 21.1 74.2 A 140.658 140.658 0 0 1 21.059 75.587 Q 20.963 78.35 20.8 79 A 21.261 21.261 0 0 1 20.5 79.844 Q 20.25 80.5 20 81 A 7.433 7.433 0 0 1 19.644 81.628 Q 19.3 82.175 18.8 82.8 Q 18 83.6 16.8 84.2 A 4.868 4.868 0 0 1 15.966 84.444 Q 15.2 84.6 14.2 84.6 L 12.8 84.6 L 12.8 59 L 12.6 33.4 L 6.4 33.4 L 0 33.2 L 0 31.4 L 0 29.6 L 6.4 29.4 L 12.6 29.4 L 12.8 15 L 12.8 0.8 L 17 0.8 Z M 70 38.6 L 74 38.6 L 74 56.4 Q 74 73.254 73.633 75.711 A 3.293 3.293 0 0 1 73.6 75.9 A 15.19 15.19 0 0 1 73.594 75.93 Q 73.394 76.87 73.095 77.688 A 9.846 9.846 0 0 1 72.4 79.2 Q 71.8 80.6 70.8 81.8 A 7.02 7.02 0 0 1 70.062 82.735 Q 69.578 83.246 69.035 83.579 A 4.418 4.418 0 0 1 69 83.6 Q 68 84.2 66.8 84.2 L 65.6 84.2 L 65.4 75.4 L 65.4 66.6 L 56.6 66.8 L 48 66.8 L 47.8 71.2 A 35.828 35.828 0 0 1 47.737 73.404 Q 47.602 75.582 47.181 77.043 A 8.634 8.634 0 0 1 47 77.6 Q 46.237 79.7 45.473 80.888 A 7.8 7.8 0 0 1 45.4 81 A 8.438 8.438 0 0 1 43.808 83.192 A 8.986 8.986 0 0 1 43.8 83.2 A 7.281 7.281 0 0 1 43.366 83.603 Q 42.831 84.056 42.4 84.2 A 1.159 1.159 0 0 1 42.158 84.283 Q 41.754 84.38 40.944 84.397 A 17.008 17.008 0 0 1 40.6 84.4 L 39.2 84.4 L 39.2 61.8 L 39.2 39 L 43.6 39 L 47.8 39 L 47.8 39.8 L 47.8 40.4 L 56.6 40.4 L 65.4 40.4 L 65.4 39.6 A 5.009 5.009 0 0 1 65.405 39.37 Q 65.429 38.855 65.569 38.805 A 0.093 0.093 0 0 1 65.6 38.8 Q 65.8 38.6 70 38.6 Z M 123 30.6 L 136.2 30.6 L 136.2 32.6 L 136.2 34.6 L 131.8 34.6 L 127.4 34.6 L 127.4 40.2 L 127.4 46 L 131.8 46 L 136.2 46 L 136.2 47.8 Q 136.2 49.6 135.8 49.6 L 135.4 49.6 Q 135.2 49.8 131.2 49.8 L 127.4 49.8 L 127.4 63.6 L 127.4 77.4 L 126.8 78.8 A 17.764 17.764 0 0 1 126.22 79.622 Q 125.935 80.001 125.664 80.31 A 8.142 8.142 0 0 1 125.3 80.7 Q 124.711 81.289 123.767 81.808 A 10.706 10.706 0 0 1 123.4 82 A 19.061 19.061 0 0 1 121.284 82.472 A 22.263 22.263 0 0 1 120.4 82.6 L 118.6 82.6 L 118.6 66 L 118.6 49.6 L 114.8 49.8 A 244.097 244.097 0 0 1 113.902 49.798 Q 111.08 49.788 110.548 49.708 A 1.013 1.013 0 0 1 110.5 49.7 Q 110.083 49.617 110.014 48.349 A 10.147 10.147 0 0 1 110 47.8 L 110 46 L 114.2 46 L 118.6 46 L 118.6 40.2 L 118.6 34.6 L 114.2 34.6 L 110 34.6 L 110 32.6 L 110 30.6 L 123 30.6 Z M 174.2 36.6 L 187.2 36.6 L 187.2 44.2 Q 187.028 50.907 186.56 53.621 A 10.829 10.829 0 0 1 186.4 54.4 Q 185.884 56.463 185.369 58.082 A 40.399 40.399 0 0 1 185.2 58.6 Q 184.4 60.4 183.6 61.8 Q 183 63.2 181.8 64.8 Q 180.941 66.003 179.638 67.354 A 34.331 34.331 0 0 1 179.2 67.8 L 177.8 69.4 L 178.4 70 A 12.131 12.131 0 0 0 178.613 70.206 Q 179.213 70.775 181 72.4 Q 182.375 73.5 184.128 74.789 A 150.075 150.075 0 0 0 185.8 76 Q 188.395 77.796 189.595 78.398 A 8.326 8.326 0 0 0 189.6 78.4 A 3.074 3.074 0 0 1 190.055 78.728 Q 190.6 79.209 190.6 79.8 L 190.6 80.8 L 189.2 80.4 Q 188.128 80.094 186.47 79.553 A 173.522 173.522 0 0 1 185.4 79.2 A 22.58 22.58 0 0 1 182.862 78.335 A 28.868 28.868 0 0 1 180.8 77.4 Q 179 76.6 177.2 75.4 A 22.199 22.199 0 0 1 176.267 74.853 Q 175.175 74.175 174.6 73.6 L 173.6 72.8 L 172 73.8 Q 170.613 74.667 168.774 75.534 A 44.956 44.956 0 0 1 168.2 75.8 Q 166.404 76.798 164.009 77.597 A 32.15 32.15 0 0 1 164 77.6 L 160 78.8 A 58.653 58.653 0 0 1 159.446 78.936 Q 158.344 79.2 158.1 79.2 Q 157.821 79.2 157.801 78.506 A 3.843 3.843 0 0 1 157.8 78.4 A 1.426 1.426 0 0 1 157.843 78.039 A 0.954 0.954 0 0 1 158.2 77.5 A 9.265 9.265 0 0 1 158.399 77.356 Q 158.938 76.975 160.4 76 A 75.633 75.633 0 0 0 162.21 74.813 Q 163.3 74.075 164.2 73.4 Q 165.6 72.4 167.5 70.9 A 62.088 62.088 0 0 0 167.945 70.545 Q 169.4 69.375 169.4 69.2 A 0.371 0.371 0 0 0 169.361 69.076 Q 169.184 68.677 168.2 67.2 Q 166.87 65.537 166.231 64.427 A 8.291 8.291 0 0 1 166 64 Q 165.206 62.809 164.413 61.225 A 35.713 35.713 0 0 1 164.4 61.2 A 15.966 15.966 0 0 1 163.563 59.498 A 20.413 20.413 0 0 1 163 58 Q 162.4 56.2 161.8 54.2 Q 161.245 52.164 161.203 46.53 A 126.757 126.757 0 0 1 161.2 45.6 L 161.2 37.8 L 161.2 36.6 L 174.2 36.6 Z M 128 14.6 L 135.2 14.6 L 135.2 16.4 L 135.2 18.4 L 126.8 18.4 L 118.4 18.4 L 117.2 20.2 A 55.983 55.983 0 0 1 116.364 21.477 Q 115.546 22.689 114.892 23.488 A 15.324 15.324 0 0 1 114.8 23.6 Q 113.994 24.541 112.826 25.752 A 94.67 94.67 0 0 1 111.6 27 A 46.583 46.583 0 0 1 110.409 28.152 Q 109.245 29.235 108.329 29.907 A 13.282 13.282 0 0 1 108.2 30 Q 106.8 31 105.2 32 A 16.883 16.883 0 0 1 103.294 33.172 A 20.741 20.741 0 0 1 102 33.8 Q 100.9 34.213 99.516 34.72 A 563.279 563.279 0 0 1 98.2 35.2 Q 96.2 35.8 95.3 36 Q 94.537 36.17 94.205 35.62 A 1.325 1.325 0 0 1 94.1 35.4 A 3.808 3.808 0 0 1 94.035 35.214 Q 93.875 34.708 94.016 34.554 A 0.195 0.195 0 0 1 94.1 34.5 Q 94.355 34.415 95.843 33.678 A 183.179 183.179 0 0 0 96.4 33.4 Q 98.172 32.219 100.138 30.456 A 46.188 46.188 0 0 0 100.2 30.4 A 27.335 27.335 0 0 0 102.087 28.712 Q 103.056 27.756 103.8 26.8 Q 105.571 24.832 106.761 23.058 A 24.207 24.207 0 0 0 106.8 23 A 704.902 704.902 0 0 0 108.656 19.888 A 807.155 807.155 0 0 0 109.3 18.8 Q 110.6 16.6 111.8 13.6 A 131.638 131.638 0 0 0 113.3 9.944 A 156.28 156.28 0 0 0 114.2 7.6 Q 115.18 4.823 115.627 3.113 A 20.066 20.066 0 0 0 115.8 2.4 L 116.4 0.4 L 117.4 0.2 L 122.2 0.2 A 238.608 238.608 0 0 1 123.091 0.155 Q 126 0.013 126 0.1 A 0.456 0.456 0 0 1 125.991 0.161 Q 125.935 0.451 125.543 2.025 A 417.181 417.181 0 0 1 125.4 2.6 Q 124.8 4.6 124 7 Q 123.2 9 122.2 11.4 Q 121.011 13.977 120.804 14.196 A 0.181 0.181 0 0 1 120.8 14.2 A 0.451 0.451 0 0 0 120.748 14.261 Q 120.63 14.43 120.8 14.6 L 128 14.6 Z M 175.6 3.4 L 184.8 3.4 L 184.8 9.8 A 114.291 114.291 0 0 0 184.829 12.467 Q 184.914 16.101 185.252 17.794 A 6.702 6.702 0 0 0 185.4 18.4 Q 185.8 20.2 186.6 21.8 A 13.645 13.645 0 0 0 187.69 23.6 A 17.743 17.743 0 0 0 188.8 25 L 190.2 26.4 L 190.2 28 L 190.2 29.8 L 188.6 29 Q 187.659 28.463 186.448 27.564 A 43.305 43.305 0 0 1 185.2 26.6 Q 183.411 25.169 182.262 23.738 A 12.987 12.987 0 0 1 182 23.4 Q 181 22 180 20.2 Q 179.2 18.6 178.8 16.6 A 8.628 8.628 0 0 1 178.51 15.429 Q 178.276 14.146 178.218 12.272 A 41.76 41.76 0 0 1 178.2 11 L 178 7.2 L 175.4 7.2 L 172.8 7.2 L 172.6 11.2 A 106.111 106.111 0 0 1 172.521 12.598 Q 172.387 14.715 172.216 15.744 A 5.788 5.788 0 0 1 172.1 16.3 A 94.173 94.173 0 0 0 171.861 17.195 Q 171.65 18 171.4 19 L 170 21.8 Q 169.2 23.2 167.1 25.3 A 25.839 25.839 0 0 1 165.598 26.694 Q 164.851 27.331 164.145 27.813 A 12.064 12.064 0 0 1 163.2 28.4 A 346.666 346.666 0 0 1 162.574 28.747 Q 161.325 29.438 161 29.6 A 12.275 12.275 0 0 1 160.834 29.164 Q 160.617 28.554 160.601 28.247 A 0.906 0.906 0 0 1 160.6 28.2 L 160.6 26.6 L 161.8 25.2 A 13.277 13.277 0 0 0 163.869 22.496 A 15.278 15.278 0 0 0 164.2 21.9 Q 165.2 20 165.6 17.8 A 15.993 15.993 0 0 0 165.77 16.511 Q 165.978 14.375 165.998 10.459 A 167.731 167.731 0 0 0 166 9.6 Q 166 4.032 166.172 3.459 A 0.149 0.149 0 0 1 166.2 3.4 A 0.4 0.4 0 0 1 166.37 3.359 Q 167.366 3.237 174.022 3.367 A 724.128 724.128 0 0 1 175.6 3.4 Z M 27.8 37.6 L 30.8 37.6 L 30.8 57.6 A 1666.133 1666.133 0 0 1 30.794 62.306 Q 30.754 76.357 30.461 78.494 A 1.877 1.877 0 0 1 30.4 78.8 A 8.181 8.181 0 0 1 29.859 80.637 A 9.615 9.615 0 0 1 29.6 81.2 Q 29 82.2 28 83.2 Q 27.2 84 26.2 84.4 A 6.608 6.608 0 0 1 25.869 84.634 Q 25.313 85 25 85 Q 24.652 85 24.607 67.223 A 2253.433 2253.433 0 0 1 24.6 61.5 A 9106.937 9106.937 0 0 1 24.602 55.989 Q 24.611 39.985 24.681 38.061 A 1.687 1.687 0 0 1 24.7 37.8 A 0.21 0.21 0 0 1 24.83 37.735 Q 25.307 37.608 27.498 37.601 A 83.397 83.397 0 0 1 27.8 37.6 Z M 5.4 37.8 L 8.2 37.8 L 8.2 57.6 A 1671.174 1671.174 0 0 1 8.194 62.311 Q 8.153 76.788 7.844 78.871 A 2.153 2.153 0 0 1 7.8 79.1 A 9.232 9.232 0 0 1 6.931 81.261 A 8.406 8.406 0 0 1 6.6 81.8 A 6.945 6.945 0 0 1 5.573 83.185 A 5.89 5.89 0 0 1 4.6 84 Q 3.834 84.459 3.186 84.684 A 4.538 4.538 0 0 1 2.8 84.8 L 2 85 L 2 61.4 Q 2 38.544 2.191 37.917 A 0.03 0.03 0 0 1 2.2 37.9 A 0.569 0.569 0 0 1 2.351 37.869 Q 2.879 37.804 5.089 37.8 A 166.935 166.935 0 0 1 5.4 37.8 Z M 5.2 0.8 L 8.4 0.8 L 8.4 10 A 349.197 349.197 0 0 1 8.318 13.115 Q 8.125 19.3 7.8 20.6 A 8.054 8.054 0 0 1 6.897 22.659 A 7.429 7.429 0 0 1 6.6 23.1 Q 5.8 24.2 4.7 25 A 9.7 9.7 0 0 1 4.042 25.441 Q 3.35 25.863 2.8 26 L 2 26.2 L 2 13.4 L 2 0.8 L 5.2 0.8 Z M 28.8 0.8 L 32 0.8 L 32 9.4 A 277.961 277.961 0 0 1 31.986 12.311 Q 31.927 17.9 31.622 19.305 A 3.138 3.138 0 0 1 31.6 19.4 A 16.041 16.041 0 0 1 31.158 20.878 A 11.75 11.75 0 0 1 30.6 22.2 Q 30.2 23.2 29.4 24.2 A 19.045 19.045 0 0 1 28.437 24.875 A 23.974 23.974 0 0 1 27.6 25.4 Q 26.445 25.895 26.107 25.982 A 0.479 0.479 0 0 1 26 26 A 0.236 0.236 0 0 1 25.906 25.803 Q 25.646 24.63 25.607 16.467 A 647.886 647.886 0 0 1 25.6 13.4 L 25.6 0.8 L 28.8 0.8 Z M 174.2 40.2 L 170.2 40.2 L 170.2 48 A 242.666 242.666 0 0 0 170.214 50.714 Q 170.275 56.093 170.595 57.576 A 4.128 4.128 0 0 0 170.6 57.6 A 12.957 12.957 0 0 0 171.251 59.781 A 17.729 17.729 0 0 0 172.2 61.8 Q 173.393 64.186 173.598 64.398 A 0.201 0.201 0 0 0 173.6 64.4 A 0.215 0.215 0 0 0 173.703 64.358 Q 173.988 64.175 174.8 63.2 Q 175.6 61.8 176.4 60.3 Q 177.2 58.8 177.8 56.8 Q 178.4 54.8 178.4 47.4 L 178.4 40.2 L 174.2 40.2 Z M 47.8 44.4 L 47.8 52.2 L 65.4 52.2 L 65.4 44.4 L 47.8 44.4 Z M 47.8 56.2 L 48 59.6 L 48 62.8 L 56.8 63 L 65.4 63 L 65.4 56.2 L 47.8 56.2 Z"
              vector-effect="non-scaling-stroke"/>
    </g>
</svg>